<?xml version="1.0" encoding="utf-8"?>
<!-- Generator: Adobe Illustrator 22.0.1, SVG Export Plug-In . SVG Version: 6.00 Build 0)  -->
<svg version="1.1" id="Layer_1" xmlns="http://www.w3.org/2000/svg" xmlns:xlink="http://www.w3.org/1999/xlink" x="0px" y="0px"
	 viewBox="0 0 512 512" style="enable-background:new 0 0 512 512;" xml:space="preserve">
<style type="text/css">
	.st0{fill:#EDF3FC;}
	.st1{fill:#330D84;}
	.st2{fill:#FFBE1B;}
	.st3{fill:#5D8EF9;}
	.st4{fill:#FFE37B;}
	.st5{fill:#8AC9F9;}
	.st6{fill:#6857E5;}
	.st7{fill:#FFFFFF;}
	.st8{fill:#D5EBF7;}
	.st9{fill:#5932AE;}
	.st10{fill:#CECAFF;}
	.st11{fill:#FFCA45;}
	.st12{fill:#FFD45C;}
	.st13{fill:#8C7BFD;}
	.st14{fill:#6DC5F2;}
	.st15{fill:#3B2296;}
	.st16{fill:#EFAB11;}
</style>
<g>
	<g>
		<g>
			<path class="st0" d="M255.998,40.935C137.225,40.935,40.93,137.227,40.93,256c0,118.781,96.295,215.069,215.068,215.069
				c118.783,0,215.075-96.288,215.075-215.069C471.073,137.227,374.781,40.935,255.998,40.935z"/>
		</g>
	</g>
	<g>
		<g>
			<path class="st0" d="M255.998,1C115.391,1,1,115.394,1,256s114.391,255,254.998,255C396.607,511,511,396.606,511,256
				S396.607,1,255.998,1z M255.998,502.827C119.896,502.827,9.169,392.102,9.169,256S119.896,9.173,255.998,9.173
				c136.104,0,246.833,110.726,246.833,246.827S392.102,502.827,255.998,502.827z"/>
		</g>
	</g>
	<g>
		<g>
			<path class="st1" d="M396.213,301.281c-10.327-2.586-18.395-10.656-20.982-20.98l-0.441-1.765l-0.44,1.765
				c-2.59,10.323-10.657,18.394-20.981,20.98l-1.766,0.445l1.766,0.441c10.324,2.586,18.392,10.652,20.981,20.977l0.44,1.766
				l0.441-1.766c2.588-10.324,10.655-18.391,20.982-20.977l1.765-0.441L396.213,301.281z"/>
		</g>
	</g>
	<g>
		<g>
			<path class="st2" d="M296.637,88.979c-11.195-2.802-19.932-11.539-22.732-22.727l-0.478-1.908l-0.482,1.908
				c-2.801,11.188-11.536,19.925-22.73,22.727l-1.905,0.482l1.905,0.471c11.193,2.808,19.928,11.545,22.73,22.738l0.482,1.901
				l0.478-1.901c2.8-11.193,11.538-19.931,22.732-22.738l1.905-0.471L296.637,88.979z"/>
		</g>
	</g>
	<g>
		<g>
			<path class="st3" d="M168.436,324.266c-15.059-3.766-26.814-15.523-30.584-30.571l-0.64-2.567l-0.651,2.567
				c-3.768,15.048-15.52,26.806-30.576,30.571l-2.563,0.65l2.563,0.631c15.057,3.775,26.808,15.533,30.576,30.592l0.651,2.557
				l0.64-2.557c3.769-15.059,15.525-26.816,30.584-30.592l2.561-0.631L168.436,324.266z"/>
		</g>
	</g>
	<g>
		<g>
			<path class="st1" d="M448.105,272.861c-12.28-3.077-21.869-12.667-24.948-24.945l-0.521-2.094l-0.531,2.094
				c-3.076,12.278-12.661,21.868-24.941,24.945l-2.092,0.525l2.092,0.525c12.28,3.073,21.865,12.659,24.941,24.944l0.531,2.095
				l0.521-2.095c3.079-12.285,12.668-21.871,24.948-24.944l2.097-0.525L448.105,272.861z"/>
		</g>
	</g>
	<g>
		<g>
			<path class="st1" d="M155.448,211.8l-18.997,0.446c0.91,3.263,0.979,6.703,0.226,9.998l18.699-0.439
				C154.957,218.482,154.977,215.116,155.448,211.8z"/>
		</g>
	</g>
	<g>
		<g>
			<path class="st1" d="M187.716,160.981l-0.446,18.997c3.316-0.472,6.682-0.49,10.004-0.073l0.439-18.696
				C194.418,161.962,190.979,161.892,187.716,160.981z"/>
		</g>
	</g>
	<g>
		<g>
			<path class="st1" d="M282.456,210.882h-52.912c0.553,3.306,0.668,6.671,0.333,10h52.246
				C281.788,217.553,281.903,214.188,282.456,210.882z"/>
		</g>
	</g>
	<g>
		<g>
			<path class="st1" d="M324.283,160.981c-3.263,0.91-6.703,0.98-9.997,0.228l0.439,18.696c3.322-0.417,6.688-0.398,10.004,0.073
				L324.283,160.981z"/>
		</g>
	</g>
	<g>
		<g>
			<path class="st1" d="M375.549,212.246l-18.997-0.447c0.471,3.317,0.49,6.684,0.072,10.006l18.699,0.439
				C374.569,218.949,374.639,215.509,375.549,212.246z"/>
		</g>
	</g>
	<g>
		<g>
			<path class="st1" d="M298.107,247.941l-21.912,37.953c2.872,1.84,5.479,4.056,7.745,6.586l23.084-39.982
				C303.904,251.407,300.906,249.881,298.107,247.941z"/>
		</g>
	</g>
	<g>
		<g>
			<path class="st1" d="M213.878,247.951c-2.8,1.939-5.799,3.463-8.919,4.553l23.088,39.989c2.265-2.531,4.871-4.749,7.742-6.59
				L213.878,247.951z"/>
		</g>
	</g>
	<g>
		<g>
			<path class="st1" d="M226.372,340.46l-13.532,12.911c2.862,1.797,5.245,4.278,6.909,7.229l13.748-13.116
				C230.819,345.472,228.426,343.104,226.372,340.46z"/>
		</g>
	</g>
	<g>
		<g>
			<path class="st1" d="M285.627,340.46c-2.054,2.645-4.447,5.012-7.125,7.023l13.747,13.115c1.664-2.949,4.047-5.431,6.91-7.229
				L285.627,340.46z"/>
		</g>
	</g>
	<g>
		<g>
			<path class="st2" d="M309.915,350.262c-11.202,0-20.28,9.079-20.28,20.281c0,11.202,9.078,20.277,20.28,20.277
				c11.201,0,20.28-9.075,20.28-20.277C330.195,359.341,321.116,350.262,309.915,350.262z"/>
		</g>
	</g>
	<g>
		<g>
			<path class="st2" d="M202.084,350.262c-11.201,0-20.28,9.079-20.28,20.281c0,11.202,9.079,20.277,20.28,20.277
				c11.202,0,20.28-9.075,20.28-20.277C222.364,359.341,213.286,350.262,202.084,350.262z"/>
		</g>
	</g>
	<g>
		<g>
			<path class="st5" d="M256,279.985c-20.713,0-37.5,16.788-37.5,37.499c0,20.715,16.787,37.497,37.5,37.497
				c20.711,0,37.5-16.782,37.5-37.497C293.5,296.773,276.711,279.985,256,279.985z"/>
		</g>
	</g>
	<g>
		<g>
			<path class="st2" d="M207.518,127.12c-7.922-7.922-20.759-7.919-28.68,0.001c-7.921,7.923-7.923,20.758-0.001,28.68
				c7.92,7.92,20.759,7.921,28.681,0C215.438,147.88,215.438,135.04,207.518,127.12z"/>
		</g>
	</g>
	<g>
		<g>
			<path class="st2" d="M131.27,203.367c-7.922-7.922-20.759-7.92-28.68,0.001c-7.92,7.921-7.923,20.759-0.001,28.68
				c7.92,7.92,20.76,7.92,28.681,0C139.19,224.127,139.189,211.287,131.27,203.367z"/>
		</g>
	</g>
	<g>
		<g>
			<path class="st5" d="M219.087,190.586c-14.647-14.648-38.385-14.644-53.03,0.002c-14.645,14.645-14.649,38.382-0.002,53.028
				c14.646,14.645,38.386,14.646,53.033,0C233.731,228.972,233.733,205.23,219.087,190.586z"/>
		</g>
	</g>
	<g>
		<g>
			<path class="st2" d="M333.161,127.121c-7.92-7.92-20.757-7.923-28.679-0.001c-7.921,7.92-7.921,20.76,0,28.681
				s20.76,7.92,28.681,0C341.085,147.879,341.083,135.044,333.161,127.121z"/>
		</g>
	</g>
	<g>
		<g>
			<path class="st2" d="M409.409,203.368c-7.921-7.921-20.757-7.923-28.679-0.001c-7.921,7.92-7.921,20.76,0,28.681
				c7.92,7.92,20.76,7.92,28.681,0C417.333,224.127,417.33,211.289,409.409,203.368z"/>
		</g>
	</g>
	<g>
		<g>
			<path class="st5" d="M345.943,190.588c-14.646-14.646-38.383-14.65-53.03-0.002c-14.646,14.644-14.645,38.386,0,53.03
				c14.646,14.646,38.386,14.645,53.032,0C360.592,228.97,360.589,205.232,345.943,190.588z"/>
		</g>
	</g>
</g>
</svg>
