<svg xmlns="http://www.w3.org/2000/svg" xmlns:xlink="http://www.w3.org/1999/xlink" id="Layer_1" x="0px" y="0px" viewBox="0 0 512 512" style="enable-background:new 0 0 512 512;" xml:space="preserve">
<style type="text/css">
	.st0{fill:#EDF3FC;}
	.st1{fill:#330D84;}
	.st2{fill:#FFBE1B;}
	.st3{fill:#5D8EF9;}
	.st4{fill:#FFE37B;}
	.st5{fill:#8AC9F9;}
	.st6{fill:#6857E5;}
	.st7{fill:#FFFFFF;}
	.st8{fill:#D5EBF7;}
	.st9{fill:#5932AE;}
	.st10{fill:#CECAFF;}
	.st11{fill:#FFCA45;}
	.st12{fill:#FFD45C;}
	.st13{fill:#8C7BFD;}
	.st14{fill:#6DC5F2;}
	.st15{fill:#3B2296;}
	.st16{fill:#EFAB11;}
</style>
<g>
	<g>
		<g>
			<path class="st0" d="M255.998,40.931c-118.773,0-215.068,96.29-215.068,215.068S137.225,471.07,255.998,471.07     c118.783,0,215.076-96.293,215.076-215.071S374.781,40.931,255.998,40.931z"></path>
		</g>
	</g>
	<g>
		<g>
			<path class="st0" d="M255.998,1C115.391,1,1,115.394,1,255.999C1,396.605,115.391,511,255.998,511     C396.607,511,511,396.605,511,255.999C511,115.394,396.607,1,255.998,1z M255.998,502.827     c-136.102,0-246.829-110.727-246.829-246.828c0-136.101,110.728-246.83,246.829-246.83c136.104,0,246.834,110.729,246.834,246.83     C502.832,392.101,392.102,502.827,255.998,502.827z"></path>
		</g>
	</g>
	<g>
		<g>
			<path class="st1" d="M207.624,104.967c-8.525-2.139-15.186-8.799-17.324-17.321l-0.364-1.457l-0.363,1.457     c-2.137,8.522-8.799,15.183-17.323,17.321l-1.458,0.368l1.458,0.364c8.524,2.135,15.187,8.797,17.323,17.321l0.363,1.457     l0.364-1.457c2.138-8.524,8.799-15.187,17.324-17.321l1.46-0.364L207.624,104.967z"></path>
		</g>
	</g>
	<g>
		<g>
			<path class="st1" d="M169.951,122.591c-11.889-2.982-21.178-12.27-24.158-24.153l-0.509-2.032l-0.506,2.032     c-2.98,11.884-12.269,21.171-24.156,24.153l-2.032,0.514l2.032,0.508c11.888,2.977,21.177,12.266,24.156,24.152l0.506,2.031     l0.509-2.031c2.98-11.887,12.27-21.176,24.158-24.152l2.035-0.508L169.951,122.591z"></path>
		</g>
	</g>
	<g>
		<g>
			<path class="st2" d="M413.982,261.207c-10.326-2.586-18.395-10.656-20.982-20.98l-0.441-1.763l-0.439,1.763     c-2.59,10.324-10.658,18.395-20.982,20.98l-1.766,0.441l1.766,0.441c10.324,2.59,18.393,10.656,20.982,20.984l0.439,1.76     l0.441-1.76c2.588-10.328,10.656-18.395,20.982-20.984l1.766-0.441L413.982,261.207z"></path>
		</g>
	</g>
	<g>
		<g>
			<path class="st2" d="M429.779,304.53c-6.764-1.696-12.048-6.979-13.742-13.741l-0.289-1.155l-0.289,1.155     c-1.695,6.762-6.981,12.045-13.742,13.741l-1.155,0.289l1.155,0.289c6.762,1.696,12.047,6.979,13.742,13.743l0.289,1.152     l0.289-1.152c1.694-6.764,6.978-12.047,13.742-13.743l1.156-0.289L429.779,304.53z"></path>
		</g>
	</g>
	<g>
		<g>
			<path class="st3" d="M149.677,316.173c-13.535-3.391-24.104-13.959-27.496-27.492l-0.576-2.309l-0.584,2.309     c-3.389,13.533-13.953,24.102-27.486,27.492l-2.307,0.58l2.307,0.58c13.533,3.385,24.098,13.951,27.486,27.49l0.584,2.308     l0.576-2.308c3.392-13.539,13.961-24.105,27.496-27.49l2.309-0.58L149.677,316.173z"></path>
		</g>
	</g>
	<g>
		<g>
			<path class="st9" d="M335.09,132.864H176.913c-8.431,0-15.265,6.834-15.265,15.261v220.747c0,8.431,6.834,15.263,15.265,15.263     h126.992c-12.642-10.019-20.761-25.497-20.761-42.881c0-30.217,24.494-54.708,54.706-54.708c4.303,0,8.484,0.513,12.501,1.452     V148.125C350.352,139.698,343.52,132.864,335.09,132.864z"></path>
		</g>
	</g>
	<g>
		<g>
			<path class="st1" d="M330.09,137.864H181.913c-8.431,0-15.265,6.834-15.265,15.261v210.747c0,8.431,6.834,15.264,15.265,15.264     h116.493c-9.445-9.831-15.262-23.173-15.262-37.882c0-30.217,24.494-54.708,54.706-54.708c2.546,0,5.048,0.189,7.501,0.524     V153.125C345.352,144.698,338.52,137.864,330.09,137.864z"></path>
		</g>
	</g>
	<g>
		<g>
			<path class="st7" d="M256,165.651c-35.898,0-65,29.102-65,65.001c0,21.914,10.855,41.28,27.47,53.055l5.479-8.029     c0.228-0.359,0.477-0.705,0.753-1.027l0.042-0.057l0.007,0.003c1.569-1.802,3.875-2.945,6.451-2.945     c4.729,0,8.563,3.835,8.563,8.563c0,0.93-0.153,1.823-0.428,2.663l0.005,0.001l-2.726,9.834c6.122,1.91,12.633,2.94,19.384,2.94     c35.898,0,65-29.102,65-65.001C321,194.753,291.898,165.651,256,165.651z"></path>
		</g>
	</g>
	<g>
		<g>
			<circle class="st1" cx="256" cy="230.652" r="15"></circle>
		</g>
	</g>
	<g>
		<g>
			<path class="st0" d="M309.217,202.947l-35.34,18.774c1.348,2.69,2.123,5.717,2.123,8.931c0,5.038-1.877,9.628-4.95,13.145     l31.011,25.297c8.699-10.412,13.94-23.813,13.94-38.442C316,220.655,313.542,211.237,309.217,202.947z"></path>
		</g>
	</g>
	<g>
		<g>
			<path class="st0" d="M236,230.652c0-1.19,0.117-2.352,0.319-3.484l-38.925-9.374c-0.906,4.144-1.395,8.442-1.395,12.858     c0,11.344,3.15,21.95,8.62,30.997l33.685-21.69C236.839,237.178,236,234.015,236,230.652z"></path>
		</g>
	</g>
	<g>
		<g>
			<path class="st0" d="M263.945,249.004c-2.437,1.056-5.12,1.648-7.945,1.648c-2.928,0-5.7-0.645-8.206-1.774l-11.459,24.494     c2.079,1.563,3.43,4.042,3.43,6.843c0,0.93-0.153,1.823-0.428,2.663l0.005,0.001l-1.381,4.982     c5.696,1.799,11.749,2.793,18.039,2.793c8.978,0,17.49-1.986,25.138-5.52L263.945,249.004z"></path>
		</g>
	</g>
	<g>
		<g>
			<path class="st0" d="M210.274,191.825c-4.1,4.822-7.439,10.305-9.862,16.259l37.06,15.095c0.378-0.928,0.814-1.826,1.319-2.68     L210.274,191.825z"></path>
		</g>
	</g>
	<g>
		<g>
			<path class="st0" d="M256,170.651c-10.712,0-20.761,2.82-29.466,7.74l21.087,34.118c2.552-1.18,5.383-1.857,8.379-1.857     c0.454,0,0.897,0.038,1.344,0.068l4.596-39.774C259.986,170.754,258.006,170.651,256,170.651z"></path>
		</g>
	</g>
	<g>
		<g>
			<circle class="st2" cx="188.5" cy="161" r="10"></circle>
		</g>
	</g>
	<g>
		<g>
			<circle class="st2" cx="323.5" cy="161" r="10"></circle>
		</g>
	</g>
	<g>
		<g>
			<path class="st2" d="M337.851,286.546c-30.212,0-54.706,24.491-54.706,54.708c0,30.213,24.494,54.702,54.706,54.702     c30.215,0,54.71-24.489,54.71-54.702C392.56,311.037,368.065,286.546,337.851,286.546z"></path>
		</g>
	</g>
	<g>
		<g>
			<path class="st4" d="M337.851,300.19c-22.679,0-41.065,18.381-41.065,41.064c0,22.677,18.387,41.063,41.065,41.063     c22.68,0,41.064-18.386,41.064-41.063C378.915,318.571,360.53,300.19,337.851,300.19z"></path>
		</g>
	</g>
	<g>
		<g>
			<path class="st7" d="M354.408,343.814c-1.467-1.689-3.43-2.801-5.898-3.332c0.682-0.304,1.158-0.522,1.424-0.657     c0.264-0.132,0.742-0.464,1.426-0.997c2.014-1.518,3.02-3.838,3.02-6.953c0-2.585-0.893-4.898-2.678-6.949     c-0.988-1.104-2.461-1.977-4.42-2.628c-0.58-0.19-1.21-0.346-1.863-0.479v-5.067h-6.988v4.582h-4.688v-4.582h-6.991v4.582h-1.952     H319.1v7.52h5.699v24.792H319.1v7.524h5.699h1.952v4.583h6.991v-4.583h4.688v4.583h6.988V361c3.801-0.41,6.587-1.577,8.334-3.532     c1.898-2.127,2.85-4.578,2.85-7.354C356.602,347.607,355.869,345.509,354.408,343.814z M333.693,328.853h4.271     c2.621,0,4.48,0.286,5.582,0.855c1.104,0.57,1.654,1.737,1.654,3.506c0,1.766-0.599,2.918-1.794,3.447     c-1.2,0.532-3.032,0.799-5.497,0.799h-4.217V328.853z M345.518,352.705c-1.277,0.628-3.186,0.94-5.73,0.94h-6.094v-9.174h5.242     c2.961,0,5.115,0.296,6.466,0.882c1.349,0.592,2.024,1.808,2.024,3.65C347.426,350.845,346.79,352.079,345.518,352.705z"></path>
		</g>
	</g>
	<g>
		<g>
			<path class="st3" d="M239.765,280.215c0-4.729-3.834-8.563-8.563-8.563c-2.576,0-4.882,1.143-6.451,2.945l-0.007-0.003     l-0.042,0.057c-0.276,0.322-0.525,0.668-0.753,1.027l-39.721,58.215c-0.039,0.051-0.076,0.105-0.115,0.157l-0.011,0.015     c-2.507,3.405-3.991,7.613-3.991,12.167c0,11.348,9.201,20.551,20.551,20.551c9.309,0,17.168-6.192,19.694-14.679l0.001-0.003     c0.302-1.014,0.526-2.061,0.669-3.134l18.316-66.088l-0.005-0.001C239.611,282.038,239.765,281.145,239.765,280.215z"></path>
		</g>
	</g>
</g>
</svg>