<?xml version="1.0" encoding="utf-8"?>
<!-- Generator: Adobe Illustrator 22.0.1, SVG Export Plug-In . SVG Version: 6.00 Build 0)  -->
<svg version="1.1" id="Layer_1" xmlns="http://www.w3.org/2000/svg" xmlns:xlink="http://www.w3.org/1999/xlink" x="0px" y="0px"
	 viewBox="0 0 512 512" style="enable-background:new 0 0 512 512;" xml:space="preserve">
<style type="text/css">
	.st0{fill:#EDF3FC;}
	.st1{fill:url(#SVGID_1_);}
	.st2{fill:url(#SVGID_2_);}
	.st3{fill:url(#SVGID_3_);}
	.st4{fill:url(#SVGID_4_);}
	.st5{fill:#FFBE1B;}
	.st6{fill:url(#SVGID_5_);}
	.st7{fill:url(#SVGID_6_);}
	.st8{fill:url(#SVGID_7_);}
	.st9{fill:url(#SVGID_8_);}
	.st10{fill:#FFE37B;}
	.st11{fill:#FFFFFF;}
	.st12{fill:#5D8EF9;}
	.st13{fill:#8AC9F9;}
	.st14{fill:#330D84;}
	.st15{fill:#5932AE;}
	.st16{fill:#6857E5;}
	.st17{fill:url(#SVGID_9_);}
	.st18{fill:url(#SVGID_10_);}
	.st19{fill:url(#SVGID_11_);}
	.st20{fill:url(#SVGID_12_);}
	.st21{fill:url(#SVGID_13_);}
	.st22{fill:url(#SVGID_14_);}
	.st23{fill:#8C7BFD;}
	.st24{fill:#D5EBF7;}
	.st25{fill:#CECAFF;}
	.st26{fill:url(#XMLID_3_);}
	.st27{fill:#7C72F7;}
	.st28{fill:#73AAF9;}
	.st29{fill:#EFAB11;}
	.st30{fill:#6DC5F2;}
	.st31{fill:#FFF9CC;}
</style>
<g>
	<g>
		<g>
			<path class="st0" d="M256.004,40.929c-118.781,0-215.07,96.293-215.07,215.073c0,118.776,96.289,215.067,215.07,215.067
				c118.773,0,215.066-96.291,215.066-215.067C471.07,137.222,374.777,40.929,256.004,40.929z"/>
		</g>
	</g>
	<g>
		<g>
			<path class="st0" d="M256.004,1C115.394,1,1,115.393,1,256.002C1,396.609,115.394,511,256.004,511
				C396.611,511,511,396.609,511,256.002C511,115.393,396.611,1,256.004,1z M256.004,502.831
				c-136.105,0-246.831-110.727-246.831-246.829c0-136.104,110.727-246.833,246.831-246.833
				c136.102,0,246.824,110.729,246.824,246.833C502.828,392.104,392.105,502.831,256.004,502.831z"/>
		</g>
	</g>
	<g>
		<g>
			<path class="st5" d="M206.105,109.119c-12.138-3.042-21.612-12.521-24.661-24.66l-0.516-2.069l-0.519,2.069
				c-3.037,12.14-12.52,21.619-24.664,24.66l-2.061,0.52l2.061,0.524c12.144,3.038,21.627,12.513,24.664,24.652l0.519,2.071
				l0.516-2.071c3.049-12.139,12.523-21.614,24.661-24.652l2.073-0.524L206.105,109.119z"/>
		</g>
	</g>
	<g>
		<g>
			<path class="st12" d="M424.962,275.943c-9.095-2.279-16.193-9.381-18.478-18.477l-0.388-1.551l-0.388,1.551
				c-2.275,9.095-9.381,16.197-18.48,18.477l-1.545,0.389l1.545,0.393c9.099,2.276,16.204,9.376,18.48,18.472l0.388,1.552
				l0.388-1.552c2.284-9.096,9.383-16.195,18.478-18.472l1.553-0.393L424.962,275.943z"/>
		</g>
	</g>
	<g>
		<g>
			<path class="st14" d="M361.284,165.658l-12.777-11.121c-3.82-3.324-9.612-2.923-12.938,0.897l-11.018,12.662
				c9.718,6.76,18.393,14.914,25.728,24.178l11.902-13.68C365.508,174.774,365.104,168.982,361.284,165.658z"/>
		</g>
	</g>
	<g>
		<g>
			<path class="st14" d="M176.431,155.434c-3.325-3.821-9.117-4.221-12.938-0.897l-12.777,11.121
				c-3.82,3.325-4.224,9.117-0.897,12.936l11.902,13.68c7.336-9.265,16.011-17.418,25.729-24.178L176.431,155.434z"/>
		</g>
	</g>
	<g>
		<g>
			<path class="st14" d="M279.727,116.85h-47.452c-5.065,0-9.17,4.105-9.17,9.169v25.173c10.455-2.968,21.49-4.557,32.896-4.557
				c11.406,0,22.441,1.589,32.897,4.557v-25.173C288.897,120.955,284.791,116.85,279.727,116.85z"/>
		</g>
	</g>
	<g>
		<g>
			<path class="st16" d="M256,146.634c-66.383,0-120.196,53.814-120.196,120.198c0,66.383,53.814,120.197,120.196,120.197
				c7.85,0,15.521-0.759,22.949-2.197v-7.774c0-6.403,5.19-11.594,11.592-11.594h16.538c-2.303-3.343-3.311-7.443-2.808-11.659
				c0.731-6.099,5.289-10.77,10.017-14.028c4.199-2.893,4.533-8.631,0.672-11.911c-12.969-10.998-23.928-30.866-23.928-46.003
				c0-26.621,16.19-38.053,35.48-39.368c0.18-0.012,0.359-0.012,0.539,0c19.288,1.315,35.477,12.747,35.477,39.368
				c0,15.137-10.961,35.004-23.924,46.003c-3.865,3.279-3.529,9.018,0.668,11.911c2.547,1.755,5.039,3.924,6.916,6.501
				c18.674-21.182,30.008-48.989,30.008-79.448C376.196,200.449,322.386,146.634,256,146.634z"/>
		</g>
	</g>
	<g>
		<g>
			<path class="st14" d="M256,169.923c-53.523,0-96.909,43.387-96.909,96.91c0,53.523,43.387,96.909,96.909,96.909
				c17.93,0,34.718-4.875,49.123-13.363c1.682-4.45,5.366-7.981,9.165-10.6c4.199-2.893,4.533-8.631,0.672-11.911
				c-12.969-10.998-23.928-30.866-23.928-46.003c0-26.621,16.19-38.053,35.48-39.368c0.18-0.012,0.359-0.012,0.539,0
				c9.563,0.652,18.361,3.795,24.806,10.04C344.946,205.794,304.664,169.923,256,169.923z"/>
		</g>
	</g>
	<g>
		<g>
			<path class="st5" d="M263.251,252.415l-5.726-58.372c-0.192-1.962-3.054-1.959-3.242,0.004l-5.574,58.386
				c-5.253,2.665-8.859,8.104-8.859,14.399c0,8.921,7.23,16.151,16.15,16.151c8.918,0,16.151-7.229,16.151-16.151
				C272.151,260.522,268.525,255.073,263.251,252.415z"/>
		</g>
	</g>
	<g>
		<g>
			<path class="st14" d="M190.042,387.559c-12.683-3.045-22.583-12.535-25.769-24.678l-0.543-2.076l-0.538,2.076
				c-3.183,12.143-13.088,21.633-25.775,24.678l-2.16,0.517l2.16,0.519c12.688,3.044,22.592,12.531,25.775,24.678l0.538,2.074
				l0.543-2.074c3.186-12.147,13.085-21.634,25.769-24.678l2.169-0.519L190.042,387.559z"/>
		</g>
	</g>
	<g>
		<g>
			<path class="st14" d="M138.881,356.284c-8.895-2.23-15.84-9.181-18.074-18.076l-0.38-1.519l-0.379,1.519
				c-2.232,8.895-9.18,15.846-18.079,18.076l-1.515,0.379l1.515,0.38c8.899,2.229,15.847,9.177,18.079,18.074l0.379,1.519
				l0.38-1.519c2.234-8.897,9.179-15.846,18.074-18.074l1.523-0.38L138.881,356.284z"/>
		</g>
	</g>
	<g>
		<g>
			<path class="st12" d="M339.272,339.779c-4.197-2.893-4.533-8.631-0.668-11.911c12.963-10.998,23.924-30.866,23.924-46.003
				c0-26.621-16.188-38.053-35.477-39.368c-0.18-0.012-0.359-0.012-0.539,0c-19.291,1.315-35.48,12.747-35.48,39.368
				c0,15.137,10.959,35.004,23.928,46.003c3.861,3.279,3.527,9.018-0.672,11.911c-4.728,3.258-9.285,7.929-10.017,14.028
				c-0.504,4.216,0.505,8.316,2.808,11.659h39.403c2.303-3.343,3.312-7.443,2.808-11.659
				C348.56,347.707,344.001,343.037,339.272,339.779z"/>
		</g>
	</g>
	<g>
		<g>
			<path class="st13" d="M284.607,393.206v2.681c0,2.468,2.001,4.469,4.468,4.469h75.41c2.467,0,4.468-2.001,4.468-4.469v-2.681
				H284.607z"/>
		</g>
	</g>
	<g>
		<g>
			<path class="st5" d="M363.019,365.465h-72.478c-6.401,0-11.592,5.19-11.592,11.594v16.146h95.662v-16.146
				C374.611,370.656,369.421,365.465,363.019,365.465z"/>
		</g>
	</g>
</g>
</svg>
