<?xml version="1.0" encoding="utf-8"?>
<!-- Generator: Adobe Illustrator 22.0.1, SVG Export Plug-In . SVG Version: 6.00 Build 0)  -->
<svg version="1.1" id="Layer_1" xmlns="http://www.w3.org/2000/svg" xmlns:xlink="http://www.w3.org/1999/xlink" x="0px" y="0px"
	 viewBox="0 0 512 512" style="enable-background:new 0 0 512 512;" xml:space="preserve">
<style type="text/css">
	.st0{fill:#EDF3FC;}
	.st1{fill:url(#SVGID_1_);}
	.st2{fill:url(#SVGID_2_);}
	.st3{fill:url(#SVGID_3_);}
	.st4{fill:url(#SVGID_4_);}
	.st5{fill:#FFBE1B;}
	.st6{fill:url(#SVGID_5_);}
	.st7{fill:url(#SVGID_6_);}
	.st8{fill:url(#SVGID_7_);}
	.st9{fill:url(#SVGID_8_);}
	.st10{fill:#FFE37B;}
	.st11{fill:#FFFFFF;}
	.st12{fill:#5D8EF9;}
	.st13{fill:#8AC9F9;}
	.st14{fill:#330D84;}
	.st15{fill:#5932AE;}
	.st16{fill:#6857E5;}
	.st17{fill:url(#SVGID_9_);}
	.st18{fill:url(#SVGID_10_);}
	.st19{fill:url(#SVGID_11_);}
	.st20{fill:url(#SVGID_12_);}
	.st21{fill:url(#SVGID_13_);}
	.st22{fill:url(#SVGID_14_);}
	.st23{fill:#8C7BFD;}
	.st24{fill:#D5EBF7;}
	.st25{fill:#CECAFF;}
	.st26{fill:url(#XMLID_3_);}
	.st27{fill:#7C72F7;}
	.st28{fill:#73AAF9;}
	.st29{fill:#EFAB11;}
	.st30{fill:#6DC5F2;}
	.st31{fill:#FFF9CC;}
</style>
<g>
	<g>
		<g>
			<path class="st0" d="M255.998,40.93C137.225,40.93,40.93,137.222,40.93,256c0,118.777,96.295,215.071,215.068,215.071
				c118.783,0,215.074-96.294,215.074-215.071C471.072,137.222,374.781,40.93,255.998,40.93z"/>
		</g>
	</g>
	<g>
		<g>
			<path class="st0" d="M255.998,1C115.391,1,1,115.393,1,256s114.391,255,254.998,255C396.607,511,511,396.607,511,256
				S396.607,1,255.998,1z M255.998,502.831C119.896,502.831,9.168,392.102,9.168,256c0-136.103,110.729-246.831,246.83-246.831
				C392.102,9.169,502.83,119.897,502.83,256C502.83,392.102,392.102,502.831,255.998,502.831z"/>
		</g>
	</g>
	<g>
		<g>
			<path class="st5" d="M354.493,98.155H157.511c-9.295,0-16.832,7.536-16.832,16.829v53.391c0,9.296,7.537,16.832,16.832,16.832
				h48.319v-32.039h103.479v32.039h45.185c9.293,0,16.828-7.536,16.828-16.832v-53.391
				C371.321,105.691,363.786,98.155,354.493,98.155z"/>
		</g>
	</g>
	<g>
		<g>
			<path class="st11" d="M161.635,153.167c-2.854,0-5.167,2.314-5.167,5.167v8.717c0,2.854,2.314,5.167,5.167,5.167h44.194v-19.052
				H161.635z"/>
		</g>
	</g>
	<g>
		<g>
			<path class="st11" d="M351.499,153.167h-42.19v19.052h42.19c2.853,0,5.166-2.314,5.166-5.167v-8.717
				C356.665,155.481,354.352,153.167,351.499,153.167z"/>
		</g>
	</g>
	<g>
		<g>
			<path class="st5" d="M258.017,352.317c-11.594-2.906-20.651-11.965-23.558-23.558l-0.498-1.979l-0.493,1.979
				c-2.908,11.592-11.965,20.651-23.558,23.558l-1.982,0.497l1.982,0.497c11.592,2.904,20.65,11.961,23.558,23.556l0.493,1.981
				l0.498-1.981c2.906-11.594,11.963-20.651,23.558-23.556l1.982-0.497L258.017,352.317z"/>
		</g>
	</g>
	<g>
		<g>
			<path class="st5" d="M205.042,332.186c-7.775-1.947-13.846-8.017-15.793-15.79l-0.33-1.327l-0.336,1.327
				c-1.945,7.773-8.014,13.843-15.791,15.79l-1.324,0.333l1.324,0.331c7.777,1.946,13.846,8.017,15.791,15.793l0.336,1.323
				l0.33-1.323c1.947-7.776,8.018-13.847,15.793-15.793l1.324-0.331L205.042,332.186z"/>
		</g>
	</g>
	<g>
		<g>
			<path class="st14" d="M415.97,209.973c-12.279-3.077-21.869-12.667-24.949-24.946l-0.522-2.095l-0.531,2.095
				c-3.074,12.28-12.66,21.869-24.94,24.946l-2.094,0.526l2.094,0.525c12.279,3.073,21.865,12.661,24.94,24.945l0.531,2.095
				l0.522-2.095c3.08-12.284,12.67-21.872,24.949-24.945l2.096-0.525L415.97,209.973z"/>
		</g>
	</g>
	<g>
		<g>
			<path class="st12" d="M129.174,184.855c-8.252-2.068-14.697-8.513-16.767-16.765l-0.351-1.408l-0.357,1.408
				c-2.065,8.252-8.508,14.696-16.759,16.765l-1.407,0.352l1.407,0.354c8.251,2.066,14.693,8.508,16.759,16.763l0.357,1.408
				l0.351-1.408c2.069-8.255,8.515-14.697,16.767-16.763l1.408-0.354L129.174,184.855z"/>
		</g>
	</g>
	<g>
		<g>
			<path class="st16" d="M215.318,153.167v120.549c12.575,2.023,22.502,11.95,24.525,24.524h32.254
				c-0.376-11.79-3.985-29.836-3.985-29.836s-1.623-10.57,6.048-13.318c6.983-2.503,12.674,4.669,14.44,8.144
				c1.033,2.034,2.492,5.738,5.3,12.107c1.891-0.73,3.864-1.291,5.919-1.621V153.167H215.318z"/>
		</g>
	</g>
	<g>
		<g>
			<path class="st5" d="M257.568,176.196c-19.748,0-35.757,16.009-35.757,35.758c0,19.749,16.009,35.759,35.757,35.759
				c19.751,0,35.76-16.01,35.76-35.759C293.328,192.206,277.319,176.196,257.568,176.196z"/>
		</g>
	</g>
	<g>
		<g>
			<path class="st10" d="M257.568,185.111c-14.824,0-26.842,12.019-26.842,26.843s12.018,26.842,26.842,26.842
				c14.824,0,26.841-12.018,26.841-26.842S272.393,185.111,257.568,185.111z"/>
		</g>
	</g>
	<g>
		<g>
			<path class="st11" d="M273.585,209.27v-4.57h-2.995v-1.278v-3.725h-4.916v3.725h-16.207v-3.725h-4.917v3.725v1.278h-2.997v4.57
				h2.997v3.063h-2.997v4.569h3.107c0.268,2.482,1.031,4.305,2.31,5.446c1.389,1.242,2.992,1.863,4.806,1.863
				c1.64,0,3.01-0.478,4.118-1.434c1.104-0.956,1.832-2.241,2.18-3.856c0.197,0.447,0.339,0.758,0.429,0.931
				c0.085,0.175,0.303,0.485,0.651,0.933c0.993,1.316,2.509,1.974,4.545,1.974c1.69,0,3.202-0.583,4.543-1.751
				c0.721-0.645,1.291-1.607,1.716-2.887c0.125-0.382,0.227-0.793,0.314-1.218h3.313v-4.569h-2.995v-3.063H273.585z
				 M255.464,212.662c0,1.937-0.193,3.346-0.577,4.229c-0.386,0.881-1.181,1.322-2.385,1.322c-1.204,0-2.011-0.415-2.42-1.248
				c-0.411-0.832-0.616-2.081-0.616-3.744v-3.986h5.998V212.662z M265.674,212.029c0,1.714-0.188,2.929-0.56,3.65
				c-0.372,0.72-1.136,1.081-2.291,1.081c-1.154,0-1.907-0.391-2.253-1.173c-0.348-0.783-0.522-1.981-0.522-3.595v-2.757h5.626
				V212.029z"/>
		</g>
	</g>
	<g>
		<g>
			<path class="st14" d="M299.819,153.167v120.549c-2.055,0.33-4.028,0.892-5.919,1.621c1.989,4.511,4.654,10.357,8.33,17.904
				c1.402,2.878,2.647,5.895,3.752,8.936c0.42-0.517,0.795-1.07,1.145-1.641c0.096-0.157,0.196-0.311,0.286-0.472
				c0.112-0.2,0.212-0.407,0.315-0.613c0.102-0.203,0.203-0.406,0.296-0.614c0.087-0.196,0.166-0.396,0.245-0.596
				c0.09-0.231,0.177-0.463,0.256-0.7c0.064-0.192,0.126-0.386,0.184-0.582c0.074-0.259,0.141-0.521,0.202-0.786
				c0.043-0.184,0.087-0.367,0.123-0.554c0.058-0.301,0.101-0.607,0.14-0.915c0.021-0.157,0.047-0.313,0.063-0.472
				c0.045-0.47,0.072-0.946,0.072-1.427v-89.562v-50.078H299.819z"/>
		</g>
	</g>
	<g>
		<g>
			<path class="st14" d="M272.098,298.24h-32.254c-2.023-12.574-11.95-22.502-24.525-24.524V153.167h-9.489v139.64
				c0,8.228,6.695,14.923,14.923,14.923h50.914c0.245-2.361,0.436-4.709,0.461-7.086C272.136,299.88,272.125,299.075,272.098,298.24
				z"/>
		</g>
	</g>
	<g>
		<g>
			<path class="st14" d="M355.095,379.228h-74.241c-4.33,0-7.841,3.512-7.841,7.841v24.691c0,4.33,3.511,7.84,7.841,7.84h74.241
				c4.328,0,7.84-3.511,7.84-7.84V387.07C362.935,382.74,359.423,379.228,355.095,379.228z"/>
		</g>
	</g>
	<g>
		<g>
			<path class="st13" d="M357.535,279.477c-7.912-21.018-26.952-53.733-39.034-68.977c-3.027-3.82-6.22-6.026-9.192-7.255v89.562
				c0,3.55-1.248,6.81-3.326,9.37c-1.104-3.04-2.35-6.057-3.752-8.936c-8.864-18.201-11.864-26.536-13.63-30.012
				c-1.767-3.475-7.457-10.646-14.44-8.144c-7.671,2.748-6.048,13.318-6.048,13.318s4.14,20.694,4.016,32.239
				c-0.125,11.546-4.041,22.355-0.085,37.79c0.836,3.264,2.086,5.956,3.534,8.182c0.665,1.479,1.424,3.069,2.304,4.77
				c5.015,9.696,15.799,21.035,15.799,21.035l0.018,6.809h57.313c-0.253-6.972-0.152-15.246,0.819-23.917
				C355.23,324.986,363.939,296.482,357.535,279.477z"/>
		</g>
	</g>
	<g>
		<g>
			<circle class="st11" cx="347.848" cy="393.833" r="6"/>
		</g>
	</g>
	<g>
		<g>
			<path class="st14" d="M192.863,282.458c-1.953-1.952-5.118-1.952-7.071,0l-8.199,8.2v-90.412c0-2.761-2.239-5-5-5
				c-2.761,0-5,2.239-5,5v90.412l-8.2-8.2c-1.953-1.952-5.118-1.952-7.071,0c-1.953,1.953-1.953,5.119,0,7.071l16.735,16.735
				c0.938,0.938,2.21,1.464,3.536,1.464c1.326,0,2.598-0.527,3.536-1.464l16.735-16.735
				C194.816,287.577,194.816,284.411,192.863,282.458z"/>
		</g>
	</g>
</g>
</svg>
